<svg width="49" height="48" viewBox="0 0 49 48" fill="none" xmlns="http://www.w3.org/2000/svg">
<path fill-rule="evenodd" clip-rule="evenodd" d="M14.4253 6.34448C15.9753 6.34448 17.2321 7.59688 17.2321 9.14147C17.2321 10.6861 15.9753 11.9384 14.4253 11.9384C12.8752 11.9384 11.6183 10.6861 11.6183 9.14147C11.6183 7.59688 12.8752 6.34448 14.4253 6.34448Z" fill="#FF0808"/>
<path fill-rule="evenodd" clip-rule="evenodd" d="M13.1387 14.178H15.7115V35.3869H13.1387V14.178Z" fill="black"/>
<path d="M33.4633 30.6506V14.6748H35.0474V34.9004H33.4894L21.701 18.6156L20.796 17.3654V18.9088V34.9004H19.2123V14.6748H20.7221L32.559 30.9448L33.4633 32.1878V30.6506Z" fill="black" stroke="black"/>
<path fill-rule="evenodd" clip-rule="evenodd" d="M24.0846 0.664425C11.1513 0.664425 0.666773 11.1123 0.666773 24.0002C0.666773 36.8877 11.1513 47.3356 24.0846 47.3356C37.018 47.3356 47.5029 36.8877 47.5029 24.0002C47.5029 11.1123 37.018 0.664425 24.0846 0.664425ZM0 24.0002C0 10.7454 10.783 0 24.0846 0C37.3863 0 48.1696 10.7454 48.1696 24.0002C48.1696 37.2546 37.3863 48 24.0846 48C10.783 48 0 37.2546 0 24.0002Z" fill="black"/>
</svg>
